<svg width="360" height="360" viewBox="0 0 360 360" fill="none" xmlns="http://www.w3.org/2000/svg">
<rect x="8" y="8" width="344" height="344" fill="white"/>
<path d="M99.264 142.843C107.256 142.843 114.36 144.064 120.576 146.506C126.792 148.948 131.787 151.834 135.561 155.164C138.003 156.94 140.001 157.828 141.555 157.828C145.551 157.828 147.993 152.944 148.881 143.176H156.54C155.652 154.054 155.208 172.924 155.208 199.786H147.549C145.107 185.134 140.334 173.035 133.23 163.489C126.348 153.943 116.025 149.17 102.261 149.17C94.269 149.17 87.72 151.501 82.614 156.163C77.508 160.603 74.955 166.819 74.955 174.811C74.955 182.581 77.619 189.13 82.947 194.458C88.275 199.564 96.822 205.78 108.588 213.106C110.586 214.216 113.583 216.103 117.579 218.767C127.791 225.427 136.005 231.31 142.221 236.416C148.437 241.522 153.432 247.405 157.206 254.065C161.202 260.725 163.2 268.384 163.2 277.042C163.2 291.694 157.65 303.127 146.55 311.341C135.672 319.555 122.241 323.662 106.257 323.662C96.267 323.662 87.498 322.108 79.95 319C75.066 316.558 70.515 313.561 66.297 310.009C65.409 309.121 64.41 308.677 63.3 308.677C61.746 308.677 60.303 309.787 58.971 312.007C57.861 314.227 56.973 317.335 56.307 321.331H48.648C49.536 308.677 49.98 286.477 49.98 254.731H57.639C60.081 275.599 64.521 291.25 70.959 301.684C77.397 311.896 88.386 317.002 103.926 317.002C111.696 317.002 118.578 314.449 124.572 309.343C130.566 304.237 133.563 296.245 133.563 285.367C133.563 276.709 130.566 269.383 124.572 263.389C118.8 257.395 109.254 250.18 95.934 241.744C85.056 234.862 76.62 229.201 70.626 224.761C64.854 220.321 59.97 214.882 55.974 208.444C51.978 202.006 49.98 194.458 49.98 185.8C49.98 171.814 54.642 161.158 63.966 153.832C73.29 146.506 85.056 142.843 99.264 142.843ZM270.847 58.594C282.391 58.594 292.048 61.591 299.818 67.585C306.7 73.135 310.141 80.017 310.141 88.231C310.141 93.337 308.476 97.555 305.146 100.885C301.816 104.215 297.598 105.88 292.492 105.88C287.386 105.88 283.057 104.326 279.505 101.218C275.953 97.888 274.177 93.448 274.177 87.898C274.177 83.236 275.398 79.462 277.84 76.576C280.504 73.69 283.945 71.803 288.163 70.915C287.497 68.695 285.721 66.919 282.835 65.587C279.949 64.255 276.286 63.589 271.846 63.589C266.962 63.589 262.633 64.699 258.859 66.919C255.085 69.139 252.199 72.136 250.201 75.91C247.759 80.35 246.094 86.899 245.206 95.557C244.54 104.215 244.207 118.756 244.207 139.18V147.838H279.838V154.498H244.207V284.701C244.207 294.913 247.093 302.017 252.865 306.013C258.859 310.009 267.739 312.007 279.505 312.007V319L271.513 318.667C248.869 318.001 234.439 317.668 228.223 317.668C222.451 317.668 209.353 318.112 188.929 319V312.007C198.253 312.007 204.802 310.342 208.576 307.012C212.35 303.46 214.237 297.133 214.237 288.031V154.498H187.597V147.838H214.237C214.237 128.302 215.458 113.206 217.9 102.55C220.342 91.894 224.782 82.792 231.22 75.244C235.66 70.138 241.321 66.142 248.203 63.256C255.085 60.148 262.633 58.594 270.847 58.594Z" fill="black"/>
<rect x="8" y="8" width="344" height="344" stroke="black" stroke-width="16" stroke-linecap="round" stroke-linejoin="round"/>
</svg>
