<svg width="360" height="360" viewBox="0 0 360 360" fill="none" xmlns="http://www.w3.org/2000/svg">
<rect x="8" y="8" width="344" height="344" fill="white"/>
<path d="M119.264 142.343C127.256 142.343 134.36 143.564 140.576 146.006C146.792 148.448 151.787 151.334 155.561 154.664C158.003 156.44 160.001 157.328 161.555 157.328C165.551 157.328 167.993 152.444 168.881 142.676H176.54C175.652 153.554 175.208 172.424 175.208 199.286H167.549C165.107 184.634 160.334 172.535 153.23 162.989C146.348 153.443 136.025 148.67 122.261 148.67C114.269 148.67 107.72 151.001 102.614 155.663C97.508 160.103 94.955 166.319 94.955 174.311C94.955 182.081 97.619 188.63 102.947 193.958C108.275 199.064 116.822 205.28 128.588 212.606C130.586 213.716 133.583 215.603 137.579 218.267C147.791 224.927 156.005 230.81 162.221 235.916C168.437 241.022 173.432 246.905 177.206 253.565C181.202 260.225 183.2 267.884 183.2 276.542C183.2 291.194 177.65 302.627 166.55 310.841C155.672 319.055 142.241 323.162 126.257 323.162C116.267 323.162 107.498 321.608 99.95 318.5C95.066 316.058 90.515 313.061 86.297 309.509C85.409 308.621 84.41 308.177 83.3 308.177C81.746 308.177 80.303 309.287 78.971 311.507C77.861 313.727 76.973 316.835 76.307 320.831H68.648C69.536 308.177 69.98 285.977 69.98 254.231H77.639C80.081 275.099 84.521 290.75 90.959 301.184C97.397 311.396 108.386 316.502 123.926 316.502C131.696 316.502 138.578 313.949 144.572 308.843C150.566 303.737 153.563 295.745 153.563 284.867C153.563 276.209 150.566 268.883 144.572 262.889C138.8 256.895 129.254 249.68 115.934 241.244C105.056 234.362 96.62 228.701 90.626 224.261C84.854 219.821 79.97 214.382 75.974 207.944C71.978 201.506 69.98 193.958 69.98 185.3C69.98 171.314 74.642 160.658 83.966 153.332C93.29 146.006 105.056 142.343 119.264 142.343ZM290.847 58.094C302.391 58.094 312.048 61.091 319.818 67.085C326.7 72.635 330.141 79.517 330.141 87.731C330.141 92.837 328.476 97.055 325.146 100.385C321.816 103.715 317.598 105.38 312.492 105.38C307.386 105.38 303.057 103.826 299.505 100.718C295.953 97.388 294.177 92.948 294.177 87.398C294.177 82.736 295.398 78.962 297.84 76.076C300.504 73.19 303.945 71.303 308.163 70.415C307.497 68.195 305.721 66.419 302.835 65.087C299.949 63.755 296.286 63.089 291.846 63.089C286.962 63.089 282.633 64.199 278.859 66.419C275.085 68.639 272.199 71.636 270.201 75.41C267.759 79.85 266.094 86.399 265.206 95.057C264.54 103.715 264.207 118.256 264.207 138.68V147.338H299.838V153.998H264.207V284.201C264.207 294.413 267.093 301.517 272.865 305.513C278.859 309.509 287.739 311.507 299.505 311.507V318.5L291.513 318.167C268.869 317.501 254.439 317.168 248.223 317.168C242.451 317.168 229.353 317.612 208.929 318.5V311.507C218.253 311.507 224.802 309.842 228.576 306.512C232.35 302.96 234.237 296.633 234.237 287.531V153.998H207.597V147.338H234.237C234.237 127.802 235.458 112.706 237.9 102.05C240.342 91.394 244.782 82.292 251.22 74.744C255.66 69.638 261.321 65.642 268.203 62.756C275.085 59.648 282.633 58.094 290.847 58.094Z" fill="black"/>
<rect x="8" y="8" width="344" height="344" stroke="black" stroke-width="16" stroke-linecap="round"/>
</svg>
